<svg width="19" height="21" viewBox="0 0 19 21" fill="none" xmlns="http://www.w3.org/2000/svg">
<path d="M16.8889 2.1H12.4767C12.0333 0.882 10.8722 0 9.5 0C8.12778 0 6.96667 0.882 6.52333 2.1H2.11111C0.95 2.1 0 3.045 0 4.2V18.9C0 20.055 0.95 21 2.11111 21H16.8889C18.05 21 19 20.055 19 18.9V4.2C19 3.045 18.05 2.1 16.8889 2.1ZM9.5 2.1C10.0806 2.1 10.5556 2.5725 10.5556 3.15C10.5556 3.7275 10.0806 4.2 9.5 4.2C8.91945 4.2 8.44444 3.7275 8.44444 3.15C8.44444 2.5725 8.91945 2.1 9.5 2.1ZM7.38889 16.8L3.16667 12.6L4.655 11.1195L7.38889 13.8285L14.345 6.909L15.8333 8.4L7.38889 16.8Z" 
fill="#FFF619"/>
</svg>
