<svg width="39" height="38" viewBox="0 0 39 38" fill="none" xmlns="http://www.w3.org/2000/svg">
<path d="M12.9455 0.73859C12.7906 0.792877 12.3884 1.31577 11.4477 2.67587C9.93133 4.87316 7.58119 8.59056 6.47807 10.5421C5.9837 11.4165 5.92836 11.5079 5.7734 11.7051C5.30485 12.2965 4.56698 12.8794 2.88093 13.9881C1.27974 15.0396 0.169243 15.8482 0.169243 15.9568C0.169243 16.0396 0.460703 16.2339 0.781679 16.3654C1.73354 16.7454 3.1355 17.1397 8.23053 18.4484C12.2815 19.4913 13.5322 19.8142 14.6316 20.1142C15.0485 20.2285 15.72 20.4057 16.1258 20.5114C16.7973 20.6828 16.8784 20.7114 17.0186 20.82C17.2031 20.96 17.2953 21.1657 17.3617 21.58C17.4134 21.9029 17.3949 22.4115 17.3285 22.5087C17.2879 22.5687 17.2621 22.5744 17.1477 22.5572C16.5943 22.4772 11.2558 21.1 6.55186 19.8228C5.68855 19.5885 3.42327 18.9656 3.1023 18.8713C2.92152 18.8198 2.5452 18.7113 2.27219 18.6341C1.41994 18.3884 1.00304 18.2541 0.921875 18.1969C0.881292 18.1684 0.811194 18.1426 0.763232 18.1426C0.663619 18.1426 0.519733 18.2598 0.464393 18.3884C0.346333 18.6598 0.752164 18.8713 2.1984 19.2913C2.41238 19.3542 3.04327 19.5313 3.60036 19.6856C4.82892 20.0256 6.17185 20.4228 6.99458 20.6914C7.33032 20.8 7.85421 20.9714 8.16043 21.0714C8.97209 21.3343 9.86861 21.5886 10.9791 21.8715C13.6871 22.5572 14.4028 22.7773 14.9526 23.0973C15.6609 23.5116 15.7827 23.8945 15.8343 25.8718C15.8675 27.0661 15.8417 27.1233 15.3547 26.869C15.2108 26.7918 13.4399 25.7689 11.4218 24.5974C7.3377 22.2286 6.26409 21.6172 5.02077 20.96C4.34561 20.6 4.16852 20.52 4.16115 20.5628C4.1427 20.6714 4.32717 22.8601 4.36037 22.8858C4.37882 22.8973 5.03553 23.1087 5.81767 23.3516C7.81731 23.9745 8.73966 24.3088 9.68783 24.7545C10.4073 25.0946 11.3923 25.6517 11.8092 25.9546L11.9937 26.0889L11.8092 26.0718C11.5952 26.0489 10.5401 25.8003 9.06063 25.4203C6.71788 24.8202 5.80292 24.5288 5.45612 24.2688C5.3233 24.1716 5.29747 24.1345 5.29747 24.0402C5.29747 23.9802 5.31223 23.883 5.33437 23.8316C5.35281 23.7773 5.36388 23.7259 5.35281 23.7202C5.27903 23.663 4.71086 24.0602 4.59649 24.2459C4.53008 24.3516 4.51533 24.4088 4.53008 24.5517C4.57067 24.9174 4.83261 25.2031 6.0169 26.1518L6.81012 26.7861L6.61458 26.9375C5.95418 27.4604 5.09087 28.0033 4.66659 28.1633L4.4563 28.2433L4.41202 28.4376C4.3862 28.5462 4.38251 28.6434 4.39727 28.6577C4.44892 28.6948 6.89497 29.6377 7.31925 29.7863C7.73984 29.9292 8.2047 30.0578 8.31169 30.0578C8.42975 30.0578 9.13811 30.2463 9.87967 30.4721C11.2226 30.8864 12.5729 31.3693 13.3993 31.7293C14.3143 32.1293 14.7644 32.2636 14.9784 32.2008C15.1813 32.1408 15.613 32.2379 16.4246 32.5236C17.1699 32.7865 18.107 33.0037 19.0219 33.1294C19.6418 33.2123 20.3649 33.3837 20.5936 33.5008C20.8297 33.6209 21.0769 34.2752 21.2171 35.1581C21.313 35.7581 21.2798 36.1439 21.1286 36.1439C21.0474 36.1439 19.4868 35.7296 18.0074 35.3153C17.3802 35.1381 16.7308 34.9581 16.5685 34.9152C16.4062 34.8724 15.5761 34.6409 14.7238 34.4009C11.5547 33.5123 10.4774 33.2151 8.94995 32.7951C7.12371 32.2979 6.67361 32.155 6.31574 31.9693C6.03535 31.8236 5.92467 31.715 5.92467 31.5779C5.92467 31.4178 5.8435 31.4121 5.62214 31.5636C5.35281 31.7464 5.16097 31.9179 5.11669 32.0093C5.02815 32.1865 5.26058 32.3922 5.7402 32.5665C7.50372 33.2065 15.9967 35.7896 19.7045 36.8154C21.0031 37.1725 21.4938 37.2925 21.5861 37.2754C21.8074 37.2325 23.1135 36.2182 25.5521 34.2009C26.4523 33.4551 28.2786 31.955 29.6104 30.8721C33.0821 28.0405 33.6835 27.5433 35.0744 26.3432C35.9968 25.5432 36.7199 25.0631 37.4614 24.7602C37.6496 24.6831 37.8599 24.5717 37.93 24.5117C38.155 24.3174 38.1772 24.2059 38.1956 23.2287C38.2214 21.9915 38.1624 21.6257 37.8968 21.3514C37.8341 21.2857 37.6275 21.14 37.4393 21.0286C36.683 20.58 36.7494 20.4657 38.0739 19.9628C38.5129 19.7942 38.8892 19.657 38.9114 19.657C38.9372 19.657 38.9446 18.9484 38.9335 17.4912C38.9224 15.5939 38.9114 15.3025 38.8597 15.1282C38.7121 14.6567 38.4096 14.3652 37.6607 13.9795C37.4245 13.8566 36.3989 13.3652 35.3806 12.8909L33.5359 12.0279L33.488 11.3479C33.381 9.77635 33.3367 9.66778 32.6616 9.41633C32.4734 9.34775 32.1118 9.21346 31.8573 9.11917C31.3445 8.92772 31.1932 8.82486 31.1194 8.62199C31.0641 8.45341 31.1526 8.18767 31.4883 7.51906C31.9348 6.63042 32.0012 6.33897 32.1045 4.82744C32.1856 3.65308 32.193 2.58157 32.1229 2.37013C31.9274 1.77295 31.4478 1.61008 29.5736 1.51293C29.2378 1.49578 27.8432 1.42435 26.4745 1.35577C25.1057 1.28434 22.8626 1.16433 21.4938 1.08718C16.8046 0.818596 15.3916 0.752876 13.9491 0.727158C13.3956 0.718586 12.9935 0.7243 12.9455 0.73859ZM7.7878 12.8966C8.17518 12.9366 8.64005 12.9823 8.82082 12.9994C9.54394 13.0652 13.8273 13.3852 16.8083 13.5995C17.9151 13.6795 19.0847 13.7623 19.4093 13.7852C20.2579 13.8452 24.069 14.0995 25.2201 14.1738C25.7587 14.2081 26.2125 14.2452 26.2273 14.2538C26.242 14.2652 26.2605 14.891 26.2642 15.6453C26.2716 17.1226 26.2679 17.1597 26.0797 17.2254C26.0059 17.2512 25.7624 17.2397 24.9139 17.1712C23.5894 17.0683 22.0288 16.9569 17.4171 16.6425C15.4506 16.5082 13.2813 16.3597 12.6024 16.3139C10.0641 16.1397 7.11633 15.9425 7.03886 15.9425H6.95769V14.3681C6.95769 12.8851 6.96138 12.7966 7.0241 12.8109C7.0573 12.8194 7.40411 12.8566 7.7878 12.8966ZM7.83945 25.786C9.21559 26.2661 9.84278 26.5261 10.7209 26.9804C11.6284 27.449 12.2372 27.8376 13.0193 28.4434C13.7867 29.0405 14.0782 29.3834 14.2221 29.8577C14.2995 30.112 14.4988 31.2264 14.4729 31.2493C14.4397 31.2721 12.2372 29.7034 9.72472 27.8719C7.99072 26.6061 6.36739 25.3717 6.36739 25.3231C6.36739 25.2831 6.72895 25.3974 7.83945 25.786Z" fill="#FFC222"/>
</svg>
