<svg width="22" height="21" viewBox="0 0 22 21" fill="none" xmlns="http://www.w3.org/2000/svg">
<path d="M7.24891 0.0204182C7.16099 0.05159 6.93283 0.351824 6.39905 1.13276C5.53873 2.3944 4.20533 4.52885 3.57945 5.6494C3.29895 6.15143 3.26755 6.20393 3.17964 6.31714C2.9138 6.65675 2.49515 6.99143 1.53853 7.628C0.630067 8.23175 0 8.69604 0 8.75839C0 8.80597 0.165366 8.91753 0.347479 8.993C0.887536 9.2112 1.68297 9.43761 4.57374 10.189C6.87212 10.7878 7.58173 10.9732 8.20552 11.1455C8.44206 11.2111 8.82303 11.3128 9.05328 11.3735C9.43425 11.472 9.4803 11.4884 9.55985 11.5507C9.66451 11.6311 9.71684 11.7492 9.75452 11.9871C9.78382 12.1725 9.77336 12.4646 9.73568 12.5203C9.71266 12.5548 9.698 12.5581 9.63311 12.5482C9.31913 12.5023 6.2902 11.7115 3.62131 10.9782C3.13149 10.8436 1.84624 10.486 1.66413 10.4318C1.56156 10.4023 1.34805 10.3399 1.19315 10.2957C0.70961 10.1546 0.473073 10.0774 0.427022 10.0446C0.403996 10.0282 0.364225 10.0135 0.337012 10.0135C0.280495 10.0135 0.198858 10.0807 0.16746 10.1546C0.100476 10.3104 0.330733 10.4318 1.15128 10.673C1.27269 10.7091 1.63064 10.8108 1.94672 10.8994C2.64377 11.0946 3.40571 11.3227 3.8725 11.4769C4.06299 11.5392 4.36023 11.6377 4.53397 11.6951C4.99448 11.846 5.50314 11.9921 6.13321 12.1545C7.66965 12.5482 8.07574 12.6746 8.38763 12.8583C8.78953 13.0962 8.85861 13.316 8.88792 14.4514C8.90676 15.1371 8.8921 15.17 8.6158 15.0239C8.53416 14.9796 7.5294 14.3923 6.3844 13.7196C4.06717 12.3596 3.45804 12.0085 2.75262 11.6311C2.36955 11.4244 2.26908 11.3785 2.26489 11.4031C2.25442 11.4654 2.35909 12.7221 2.37793 12.7369C2.38839 12.7435 2.76099 12.8649 3.20476 13.0043C4.3393 13.362 4.86261 13.5539 5.40057 13.8099C5.80875 14.0051 6.36765 14.325 6.60419 14.4989L6.70885 14.576L6.60419 14.5662C6.48278 14.5531 5.88411 14.4103 5.04472 14.1921C3.71551 13.8476 3.19638 13.6803 2.99962 13.531C2.92426 13.4752 2.90961 13.4539 2.90961 13.3997C2.90961 13.3653 2.91798 13.3095 2.93054 13.2799C2.94101 13.2488 2.94729 13.2192 2.94101 13.216C2.89914 13.1832 2.57678 13.4112 2.51189 13.5178C2.47422 13.5785 2.46584 13.6114 2.47422 13.6934C2.49724 13.9034 2.64586 14.0675 3.31779 14.6121L3.76784 14.9764L3.6569 15.0633C3.28221 15.3635 2.79239 15.6753 2.55167 15.7671L2.43235 15.8131L2.40723 15.9246C2.39258 15.987 2.39049 16.0428 2.39886 16.051C2.42816 16.0723 3.81598 16.6137 4.05671 16.699C4.29534 16.781 4.55909 16.8549 4.61979 16.8549C4.68677 16.8549 5.08868 16.9632 5.50942 17.0928C6.27136 17.3307 7.03749 17.6079 7.50637 17.8146C8.0255 18.0443 8.28088 18.1214 8.40228 18.0853C8.51741 18.0509 8.76232 18.1067 9.22284 18.2707C9.64567 18.4217 10.1774 18.5464 10.6965 18.6185C11.0481 18.6661 11.4584 18.7646 11.5882 18.8318C11.7222 18.9007 11.8624 19.2764 11.942 19.7834C11.9964 20.1279 11.9775 20.3494 11.8917 20.3494C11.8457 20.3494 10.9602 20.1115 10.1208 19.8736C9.76499 19.7719 9.39657 19.6685 9.30447 19.6439C9.21237 19.6193 8.74139 19.4864 8.25785 19.3486C6.45975 18.8384 5.84853 18.6678 4.98192 18.4266C3.94577 18.1411 3.69039 18.0591 3.48735 17.9525C3.32826 17.8688 3.26546 17.8064 3.26546 17.7277C3.26546 17.6358 3.21941 17.6325 3.09382 17.7195C2.94101 17.8245 2.83216 17.9229 2.80704 17.9754C2.7568 18.0771 2.88868 18.1953 3.1608 18.2953C4.16137 18.6628 8.98002 20.146 11.0837 20.735C11.8206 20.94 12.099 21.0089 12.1513 20.9991C12.2769 20.9745 13.0179 20.3921 14.4015 19.2338C14.9123 18.8056 15.9484 17.9442 16.7041 17.3224C18.6738 15.6966 19.015 15.4111 19.8042 14.7221C20.3275 14.2627 20.7378 13.9871 21.1585 13.8132C21.2653 13.7689 21.3846 13.7049 21.4244 13.6704C21.552 13.5589 21.5646 13.4949 21.5751 12.9338C21.5897 12.2234 21.5562 12.0134 21.4055 11.8559C21.3699 11.8182 21.2527 11.7345 21.146 11.6705C20.7168 11.4129 20.7545 11.3473 21.506 11.0585C21.7551 10.9617 21.9686 10.883 21.9812 10.883C21.9958 10.883 22 10.4761 21.9937 9.6394C21.9874 8.55003 21.9812 8.38268 21.9519 8.28261C21.8681 8.0119 21.6965 7.84456 21.2716 7.62307C21.1376 7.55253 20.5557 7.27034 19.9779 6.998L18.9313 6.50253L18.9041 6.11206C18.8434 5.20971 18.8183 5.14737 18.4352 5.003C18.3284 4.96362 18.1233 4.88651 17.9789 4.83237C17.6879 4.72245 17.6021 4.66339 17.5602 4.5469C17.5288 4.45011 17.5791 4.29753 17.7696 3.91362C18.0228 3.40339 18.0605 3.23604 18.1191 2.36815C18.1652 1.69386 18.1694 1.07862 18.1296 0.957214C18.0187 0.614323 17.7465 0.520807 16.6832 0.465027C16.4927 0.455183 15.7014 0.414167 14.9248 0.374792C14.1482 0.333776 12.8755 0.26487 12.099 0.220573C9.43844 0.0663548 8.63673 0.0286198 7.81827 0.013855C7.50428 0.00893211 7.27612 0.0122147 7.24891 0.0204182ZM4.32255 7.00128C4.54234 7.02425 4.80609 7.0505 4.90866 7.06034C5.31893 7.09807 7.74919 7.28182 9.44053 7.40487C10.0685 7.45081 10.7321 7.49839 10.9163 7.51151C11.3977 7.54596 13.56 7.69198 14.2131 7.73464C14.5187 7.75432 14.7762 7.77565 14.7846 7.78057C14.793 7.78714 14.8034 8.14643 14.8055 8.57956C14.8097 9.42776 14.8076 9.44909 14.7009 9.48682C14.659 9.50159 14.5208 9.49503 14.0394 9.45565C13.2879 9.39659 12.4025 9.33261 9.78592 9.15214C8.67022 9.07503 7.43939 8.98972 7.05423 8.96347C5.61408 8.86339 3.94158 8.75018 3.89762 8.75018H3.85157V7.8462C3.85157 6.99471 3.85366 6.94386 3.88925 6.95206C3.90809 6.95698 4.10485 6.97831 4.32255 7.00128ZM4.35186 14.4021C5.13264 14.6778 5.48849 14.8271 5.98668 15.0879C6.50162 15.357 6.847 15.5801 7.29077 15.9279C7.72617 16.2708 7.89153 16.4677 7.97317 16.74C8.01713 16.886 8.13016 17.5259 8.11551 17.539C8.09667 17.5521 6.847 16.6514 5.4215 15.5998C4.43768 14.873 3.51665 14.1642 3.51665 14.1364C3.51665 14.1134 3.72179 14.179 4.35186 14.4021Z" 
fill="#FFF619"/>
</svg>
