<svg width="31" height="34" viewBox="0 0 31 34" fill="none" xmlns="http://www.w3.org/2000/svg">
<path d="M27.2923 4.0461H20.3471C19.6492 2.11871 17.8215 0.723022 15.6615 0.723022C13.5015 0.723022 11.6738 2.11871 10.976 4.0461H4.03076C2.20307 4.0461 0.707687 5.54148 0.707687 7.36918V30.6307C0.707687 32.4584 2.20307 33.9538 4.03076 33.9538H27.2923C29.12 33.9538 30.6154 32.4584 30.6154 30.6307V7.36918C30.6154 5.54148 29.12 4.0461 27.2923 4.0461ZM15.6615 4.0461C16.5754 4.0461 17.3231 4.79379 17.3231 5.70764C17.3231 6.62148 16.5754 7.36918 15.6615 7.36918C14.7477 7.36918 14 6.62148 14 5.70764C14 4.79379 14.7477 4.0461 15.6615 4.0461ZM12.3385 27.3076L5.6923 20.6615L8.03507 18.3187L12.3385 22.6055L23.288 11.6559L25.6308 14.0153L12.3385 27.3076Z" fill="#FFC222"/>
</svg>
