<svg width="40" height="30" viewBox="0 0 40 30" fill="none" xmlns="http://www.w3.org/2000/svg">
<path d="M35.6124 1.02604C33.6761 0.415479 31.5478 0.153809 29.5068 0.153809C26.1051 0.153809 22.4417 0.851595 19.9122 2.77051C17.3827 0.851595 13.7194 0.153809 10.3177 0.153809C6.91594 0.153809 3.25256 0.851595 0.723083 2.77051V28.327C0.723083 28.7631 1.1592 29.1992 1.59532 29.1992C1.76976 29.1992 1.85699 29.112 2.03143 29.112C4.38646 27.9781 7.78818 27.1931 10.3177 27.1931C13.7194 27.1931 17.3827 27.8908 19.9122 29.8098C22.2673 28.327 26.5412 27.1931 29.5068 27.1931C32.3852 27.1931 35.3508 27.7164 37.793 29.0247C37.9675 29.112 38.0547 29.112 38.2291 29.112C38.6652 29.112 39.1014 28.6758 39.1014 28.2397V2.77051C38.0547 1.9855 36.9208 1.46216 35.6124 1.02604ZM35.6124 24.5764C33.6935 23.9658 31.6002 23.7041 29.5068 23.7041C26.5412 23.7041 22.2673 24.838 19.9122 26.3208V6.25944C22.2673 4.77665 26.5412 3.64274 29.5068 3.64274C31.6002 3.64274 33.6935 3.90441 35.6124 4.51498V24.5764Z" fill="#FFC222"/>
<path d="M29.5068 10.6205C31.0419 10.6205 32.5247 10.7775 33.868 11.074V8.42246C32.4898 8.16079 31.007 8.00378 29.5068 8.00378C26.5412 8.00378 23.8547 8.50968 21.6567 9.45169V12.3475C23.6279 11.231 26.3668 10.6205 29.5068 10.6205Z" fill="#FFC222"/>
<path d="M21.6567 14.0921V16.9879C23.628 15.8714 26.3668 15.2609 29.5068 15.2609C31.042 15.2609 32.5248 15.4179 33.868 15.7144V13.0628C32.4899 12.8012 31.0071 12.6442 29.5068 12.6442C26.5412 12.6442 23.8548 13.1675 21.6567 14.0921Z" fill="#FFC222"/>
<path d="M29.5068 17.3018C26.5412 17.3018 23.8548 17.8077 21.6567 18.7497V21.6455C23.628 20.529 26.3668 19.9185 29.5068 19.9185C31.042 19.9185 32.5248 20.0755 33.868 20.372V17.7204C32.4899 17.4413 31.0071 17.3018 29.5068 17.3018Z" fill="#FFC222"/>
</svg>
