<svg width="42" height="42" viewBox="0 0 42 42" fill="none" xmlns="http://www.w3.org/2000/svg">
<path fill-rule="evenodd" clip-rule="evenodd" d="M21 8.64412L36.75 24.3941V35.4375C36.75 36.4818 36.3352 37.4833 35.5967 38.2217C34.8583 38.9602 33.8568 39.375 32.8125 39.375H9.1875C8.14321 39.375 7.14169 38.9602 6.40327 38.2217C5.66484 37.4833 5.25 36.4818 5.25 35.4375V24.3941L21 8.64412ZM34.125 6.5625V15.75L28.875 10.5V6.5625C28.875 6.2144 29.0133 5.88056 29.2594 5.63442C29.5056 5.38828 29.8394 5.25 30.1875 5.25H32.8125C33.1606 5.25 33.4944 5.38828 33.7406 5.63442C33.9867 5.88056 34.125 6.2144 34.125 6.5625Z" fill="#FFF619"/>
<path fill-rule="evenodd" clip-rule="evenodd" d="M19.1441 3.93751C19.6364 3.4454 20.3039 3.16895 21 3.16895C21.6961 3.16895 22.3636 3.4454 22.8559 3.93751L40.3042 21.3833C40.5507 21.6297 40.6892 21.964 40.6892 22.3125C40.6892 22.661 40.5507 22.9953 40.3042 23.2418C40.0578 23.4882 39.7235 23.6267 39.375 23.6267C39.0265 23.6267 38.6922 23.4882 38.4457 23.2418L21 5.79338L3.55424 23.2418C3.30779 23.4882 2.97353 23.6267 2.62499 23.6267C2.27646 23.6267 1.9422 23.4882 1.69574 23.2418C1.44929 22.9953 1.31084 22.661 1.31084 22.3125C1.31084 21.964 1.44929 21.6297 1.69574 21.3833L19.1441 3.93751Z" fill="#FFF619"/>
</svg>
